<svg width="125" height="54" xmlns="http://www.w3.org/2000/svg"><g><path d="M101.21 54H6.47a6.47 6.47 0 01-6.45-6.48V6.48A6.47 6.47 0 016.47 0h94.7a8.66 8.66 0 016.68 3.15l15.12 18.27a8.76 8.76 0 010 11.16l-15.14 18.3A8.58 8.58 0 01101.2 54" fill="#FEDC07"/><path d="M14.62 39.3c.43.12 1.16.15 1.67.15 2.5 0 4.16-1.42 4.16-4 0-2.15-1.6-3.45-4.3-3.45-.55 0-.99 0-1.53.07v7.24zm0-10.14c1.01-.18 1.88-.22 3.62-.22.9-.47 1.56-1.53 1.56-3.28 0-2.32-1.52-3.41-3.44-3.41-.58 0-1.38.07-1.74.14v6.77zm-5.03-4.7c0-1.96 0-3.02-.11-4.54.94-.26 4.7-.73 7.02-.73 7.06 0 8.18 3.31 8.18 5.75 0 2.25-1.59 3.93-3.25 4.76 3.1.91 4.6 3.02 4.6 5.42 0 4.84-4.1 7.39-10.03 7.39a41.2 41.2 0 01-6.41-.62V24.46zm24.72 4.04c-1.15 0-2.46 1.13-2.5 3.71.95.11 3.48.08 4.42 0 .22 0 .36-.36.36-.76 0-1.6-.61-2.95-2.24-2.95h-.04zm6.27 9.72A4.86 4.86 0 0138.44 42c-.5.22-2.1.58-3.26.58-5.4 0-8.36-2.84-8.36-8.33 0-4.3 2.9-8.62 7.86-8.62 4.81 0 6.58 3.45 6.58 6.44 0 .54-.07.94-.14 1.2-.1.5-1.38 1.05-2.97 1.49-.87.25-4.74.3-6.37.22.25 2.98 2.53 3.93 4.67 3.93 1.77 0 3.44-.55 4.05-.8l.08.1zm5.46-1.06c0 1.2.9 1.9 2.03 1.9.72 0 1.09-.15 1.56-.55.21-.26.32-.62.32-1.28v-2.47c-3.22.33-3.9 1.56-3.9 2.36v.04zm10.57 1.93c0 2.18-1.05 3.5-3.4 3.5a3.24 3.24 0 01-3.15-1.94 5.91 5.91 0 01-4.09 1.93 4.65 4.65 0 01-4.67-4.73c0-3.64 4.02-4.65 6.88-5.27l1.85-.33v-.44c0-1.42-1.02-2.47-2.72-2.47-1.23 0-2.46.58-3.19.9-1.77.48-2.24-1.05-2.2-2.25 1.7-1.16 4.34-2.36 6.8-2.36 3.08 0 6.12 1.96 6.12 6.18 0 1.5-.14 3.9-.14 6.33 0 .37.43.84 1.3.84.18 0 .43 0 .58-.04l.03.15zM32.29 13.38c-1.33 0-2.5 1.09-2.5 3.57 0 2.54 1.25 3.87 2.8 3.87 1.62 0 2.53-1.36 2.53-3.63 0-2.12-.97-3.81-2.81-3.81h-.02zm.2-1.37c3.22 0 4.97 2.28 4.97 5 0 2.82-1.77 5.18-5.05 5.18-3.57 0-5-2.58-5-5.02 0-2.94 1.88-5.16 5.07-5.16h.01zm10.19 5.74c0-.77-.44-1.25-1.03-1.25-.53 0-.8.17-1.13.4v4.66c0 .26-.03.34-.39.38-.6.1-1.14.11-1.8.11.02-.95.04-1.91.04-2.8v-2.53c0-.42-.05-.62-.3-.78v-.12c.16-.45.75-.92 1.3-.92.65 0 .92.48 1.02.98.67-.53 1.37-.98 2.1-.98 2.07 0 2.34 1.77 2.34 2.88v1.83c0 .78.02 1.71.05 2.32-.35.03-1.07.12-1.84.12-.25 0-.36-.1-.36-.32v-3.98m10.22 2.67c.07.4 0 .95-.27 1.2-.4.34-1.07.53-1.83.53-1.67 0-2.16-1.08-2.16-2.12v-3.57c-.6 0-.93-.33-.93-.49A12.3 12.3 0 0149.64 14c.28-.23.6-.44 1.32-.5-.06.45-.1 1.1-.1 1.59h2.2c-.2 1.23-.54 1.26-.86 1.3-.27.03-.98.07-1.4.07-.06 1.11-.04 2.56.02 3.2.08.68.46.98.99.98.46 0 .88-.17 1.04-.25l.04.03m2.63-4.66c.64-.5 1.26-.86 2.1-.86 1.32 0 2.2.98 2.2 2.72v2.05c0 .72.02 1.65.05 2.26-.36.03-1.07.12-1.84.12-.25 0-.36-.1-.36-.35v-4c0-.68-.4-1.2-1.05-1.2-.37 0-.74.12-1.1.37v4.63c0 .3-.03.4-.38.45-.62.08-1.13.1-1.81.1.03-.96.04-1.9.04-2.79v-5.88c0-.95-.03-1.32-.06-1.65.3-.12 1.52-.32 1.89-.32.26 0 .32.08.32 1.02v3.32m8.2.38c-.5 0-1.05.48-1.07 1.58.4.05 1.49.04 1.89 0 .1 0 .16-.15.16-.32 0-.69-.27-1.26-.96-1.26h-.02zm2.68 4.15c.01.76-.64 1.5-.92 1.62-.21.09-.9.25-1.39.25-2.3 0-3.57-1.22-3.57-3.56 0-1.84 1.24-3.69 3.36-3.69 2.05 0 2.81 1.48 2.81 2.75 0 .24-.03.4-.06.52-.05.21-.59.45-1.27.63-.37.11-2.03.13-2.72.1.1 1.27 1.08 1.68 2 1.68.75 0 1.46-.24 1.73-.35l.03.05zm4.15 18.05l-.07-.11c-.94.36-2.25.65-3.91.65-2.5 0-4.85-1.53-4.85-5.06 0-3.2 1.92-4.73 4.27-4.73.87 0 2 .22 2.75.51 1.41 0 1.92-1.52 1.88-2.54-.68-.7-2.46-1.42-4.92-1.42-5.14 0-9.09 3.6-9.09 8.91 0 4.84 3.23 8.04 8.44 8.04.73 0 1.47-.07 2.16-.21a5.33 5.33 0 002.06-.84 3.2 3.2 0 001.25-2.83l.03-.37m37.11 2.86c-1.69-2.02-4.68-3.56-8.3-4.26-.6-.11-1.24-.2-1.87-.3h-.02a22.18 22.18 0 00-8.05.58c.36-7.83 5.17-13.03 5.17-13.05.6.39 1.1.99 1.41 1.84.54 1.38.29 2.59-.38 3.5.6-.1 1.21-.37 1.74-1a3.3 3.3 0 00.63-3.3 3.16 3.16 0 00-1.44-1.62c.75.2 1.5.59 2.24 1.18a5.65 5.65 0 012.27 5.1 4.64 4.64 0 001.6-3 5.16 5.16 0 00-1.79-4.77 5.01 5.01 0 00-1.48-.8 5.6 5.6 0 014.77 3.15c.28-.94.35-1.98-.13-3.18a5.11 5.11 0 00-4.23-3.33c-.7-.06-1.38.03-2 .24a5.25 5.25 0 00-1.63-4.26c-.18-.18-.4-.33-.63-.44-2.34-1.15-3.99-.87-5.26-.1 1.74.4 3.3 1.59 4.08 3.8l.05.14c-.29-.47-.66-.9-1.12-1.27a5.1 5.1 0 00-5.02-.68 4.57 4.57 0 00-2.55 2.24 5.6 5.6 0 015.46 1.08 6.35 6.35 0 011.65 1.93 3.14 3.14 0 00-1.9-1.04 3.25 3.25 0 00-3.06 1.36 3 3 0 00-.6 1.9l-.01.17s3.77-2.17 5.48-.17c-1.44 1.16-7.2 6.5-9.4 19.51h24.82c.2 0 .32-.25.17-.4-.22-.22-.44-.48-.67-.75" fill="#17317F"/><path d="M81.63 42.04c.12-.64.24-1.26.38-1.85A39.22 39.22 0 0186.1 29a4.75 4.75 0 00-4.72-3.38c-1.95 0-3.4.84-4.89 2v-7.75c0-2.22-.14-2.4-.76-2.4-.87 0-3.73.47-4.42.76.07.77.15 1.64.15 3.86v13.77c0 2.07-.04 4.3-.11 6.51 1.6 0 2.79-.03 4.24-.21.83-.11.9-.37.9-1.06V30.24c.84-.58 1.7-.88 2.58-.88 1.52 0 2.46 1.24 2.46 2.84v9.33c0 .22.03.38.1.5" fill="#17317F"/></g></svg>
